@startuml pe_na_pedra_class_diagram_8

package types {
  class JsonMap {
    <<typedef>>
    Map<String, dynamic>
  }
}

package flutter {
  abstract class StatelessWidget {
    # build(context: BuildContext): Widget
  }

  abstract class StatefulWidget {
    # createState(): State
  }
}

package controller {
  class TrailFormController {
    + formData: JsonMap
  }

  class ProfileEditFormController {
    + formData: JsonMap
  }

  class BannedHikersController {
    + formData: JsonMap
  }

  class EventRegistratorController {
    + formData: JsonMap
  }

  class AdmsListViewController {
    + formData: JsonMap
  }

  class HikersController
}

package views {
  class AdmView {
    + build(context: BuildContext): Widget
  }

  class AdmsListView {
    + build(context: BuildContext): Widget
  }

  class EventsView {
    + build(context: BuildContext): Widget
  }

  class EventRegistratorFormView {
    + build(context: BuildContext): Widget
  }

  class TrailsView {
    + build(context: BuildContext): Widget
  }

  class TrailFormView {
    + build(context: BuildContext): Widget
  }

  class ProfileView {
    + build(context: BuildContext): Widget
  }

  class ProfileEditView {
    + build(context: BuildContext): Widget
  }

  class BannedHikersView {
    + build(context: BuildContext): Widget
  }

  class HikersView {
    + build(context: BuildContext): Widget
  }
}

StatelessWidget <|-- AdmView
StatelessWidget <|-- ProfileView
StatefulWidget <|-- ProfileEditView
StatelessWidget <|-- AdmsListView
StatelessWidget <|-- EventsView
StatelessWidget <|-- TrailsView
StatelessWidget <|-- BannedHikersView
StatelessWidget <|-- HikersView

AdmView *-- ProfileView
ProfileView *-- ProfileEditView
AdmView *-- TrailsView
AdmView *-- BannedHikersView
AdmView *-- HikersView
AdmView *-- EventsView
AdmView *-- AdmsListView

EventsView *-- EventRegistratorFormView
TrailsView *-- TrailFormView
ProfileEditView *-- ProfileEditFormController
AdmsListView *-- AdmsListViewController
HikersView *-- HikersController

TrailFormController --> JsonMap : use
ProfileEditFormController --> JsonMap : use
BannedHikersController --> JsonMap : use
EventRegistratorController --> JsonMap : use
AdmsListViewController --> JsonMap : use

BannedHikersView --> BannedHikersController
TrailFormView --> TrailFormController
EventRegistratorFormView --> EventRegistratorController

@enduml
